<?xml version="1.0" encoding="utf-8"?>
<!-- Generator: Adobe Illustrator 16.0.0, SVG Export Plug-In . SVG Version: 6.00 Build 0)  -->
<!DOCTYPE svg PUBLIC "-//W3C//DTD SVG 1.1//EN" "http://www.w3.org/Graphics/SVG/1.1/DTD/svg11.dtd">
<svg version="1.1" id="图层_1" xmlns="http://www.w3.org/2000/svg" xmlns:xlink="http://www.w3.org/1999/xlink" x="0px" y="0px"
	 width="181px" height="52px" viewBox="0 0 181 52" enable-background="new 0 0 181 52" xml:space="preserve">
<path fill="#0095FF" d="M36.79,18.14c-0.79-1.7-1.96-3.07-3.5-4.12s-3.42-1.57-5.64-1.57c-1.78,0-3.48,0.35-5.1,1.04
	c-1.62,0.69-3.07,1.65-4.33,2.88c-1.27,1.23-2.32,2.69-3.17,4.39s-1.39,3.56-1.63,5.58c-0.24,2.06-0.14,3.94,0.3,5.64
	c0.43,1.7,1.14,3.15,2.11,4.36c0.97,1.21,2.18,2.15,3.62,2.82c1.44,0.67,3.08,1.01,4.9,1.01c2.13,0,4.11-0.54,5.93-1.6
	c1.82-1.07,3.36-2.49,4.63-4.27l6.59,4.27c-1.94,2.53-4.37,4.62-7.3,6.26c-2.93,1.64-6.37,2.46-10.33,2.46
	c-3.01,0-5.77-0.53-8.28-1.6c-2.51-1.07-4.63-2.53-6.35-4.39s-3-4.07-3.83-6.65c-0.83-2.57-1.09-5.34-0.77-8.31
	c0.36-3.05,1.21-5.85,2.55-8.43s3.07-4.79,5.16-6.65c2.1-1.86,4.5-3.31,7.21-4.36c2.71-1.05,5.59-1.57,8.63-1.57
	c3.88,0,7.14,0.83,9.79,2.49s4.67,3.74,6.05,6.23L36.79,18.14z"/>
<path fill="#0095FF" d="M66.82,25.15c-0.24-0.39-0.58-0.78-1.04-1.16c-0.46-0.38-0.98-0.7-1.57-0.98c-0.59-0.28-1.25-0.51-1.96-0.68
	s-1.45-0.27-2.2-0.27c-1.35,0-2.57,0.2-3.68,0.59c-1.11,0.4-1.76,1.09-1.96,2.08c-0.24,1.03,0.06,1.79,0.89,2.28
	c0.83,0.5,2.26,1,4.27,1.51c3.56,0.87,6.05,2.15,7.48,3.83s1.86,3.87,1.3,6.56c-0.55,2.61-2.06,4.59-4.51,5.93
	c-2.45,1.34-5.48,2.02-9.08,2.02c-1.54,0-2.97-0.16-4.27-0.47c-1.31-0.32-2.47-0.72-3.5-1.22s-1.93-1.05-2.7-1.66
	s-1.41-1.22-1.93-1.81l4.69-4.57c0.28,0.44,0.68,0.89,1.21,1.37c0.54,0.47,1.15,0.91,1.84,1.3c0.69,0.4,1.45,0.72,2.29,0.98
	c0.83,0.26,1.66,0.38,2.49,0.38c1.62,0,2.96-0.27,4.01-0.8c1.05-0.53,1.67-1.29,1.87-2.29c0.2-0.95-0.16-1.73-1.07-2.34
	c-0.91-0.61-2.34-1.16-4.27-1.63c-3.24-0.79-5.59-2-7.03-3.62c-1.45-1.62-1.91-3.68-1.39-6.17c0.24-1.23,0.73-2.31,1.48-3.26
	c0.75-0.95,1.71-1.75,2.88-2.4c1.17-0.65,2.49-1.16,3.98-1.51c1.48-0.36,3.07-0.54,4.78-0.54c2.77,0,5.07,0.46,6.91,1.37
	s3.17,1.9,4,2.97L66.82,25.15z"/>
<path fill="#0095FF" d="M96.31,25.15c-0.24-0.39-0.58-0.78-1.04-1.16c-0.46-0.38-0.98-0.7-1.57-0.98c-0.59-0.28-1.25-0.51-1.96-0.68
	c-0.71-0.18-1.44-0.27-2.2-0.27c-1.35,0-2.57,0.2-3.68,0.59c-1.11,0.4-1.76,1.09-1.96,2.08c-0.24,1.03,0.06,1.79,0.89,2.28
	c0.83,0.5,2.25,1,4.27,1.51c3.56,0.87,6.05,2.15,7.48,3.83s1.86,3.87,1.31,6.56c-0.55,2.61-2.06,4.59-4.51,5.93
	c-2.45,1.34-5.48,2.02-9.08,2.02c-1.54,0-2.97-0.16-4.27-0.47c-1.31-0.32-2.47-0.72-3.5-1.22s-1.93-1.05-2.7-1.66
	s-1.41-1.22-1.93-1.81l4.69-4.57c0.28,0.44,0.68,0.89,1.22,1.37c0.53,0.47,1.15,0.91,1.84,1.3c0.69,0.4,1.46,0.72,2.29,0.98
	s1.66,0.38,2.49,0.38c1.62,0,2.96-0.27,4.01-0.8c1.05-0.53,1.67-1.29,1.87-2.29c0.2-0.95-0.16-1.73-1.07-2.34
	c-0.91-0.61-2.33-1.16-4.27-1.63c-3.24-0.79-5.59-2-7.03-3.62c-1.44-1.62-1.91-3.68-1.39-6.17c0.24-1.23,0.73-2.31,1.48-3.26
	c0.75-0.95,1.71-1.75,2.88-2.4c1.17-0.65,2.49-1.16,3.98-1.51c1.48-0.36,3.08-0.54,4.78-0.54c2.77,0,5.07,0.46,6.91,1.37
	s3.17,1.9,4.01,2.97L96.31,25.15z"/>
<path fill="#FBBC05" d="M143.84,35.53c-0.87,3.72-2.62,6.61-5.25,8.66c-2.63,2.05-5.94,3.08-9.94,3.08c-2.02,0-3.93-0.33-5.73-0.98
	c-1.8-0.65-3.33-1.67-4.6-3.06l4.39-6.05c0.63,0.95,1.46,1.68,2.49,2.2c1.03,0.51,2.15,0.77,3.38,0.77c1.74,0,3.24-0.54,4.51-1.6
	s2.1-2.43,2.49-4.09l6.35-27.95h8.72L143.84,35.53z"/>
<path fill="#FBBC05" d="M172.32,25.15c-0.24-0.39-0.58-0.78-1.04-1.16c-0.46-0.38-0.98-0.7-1.57-0.98
	c-0.59-0.28-1.25-0.51-1.96-0.68c-0.71-0.18-1.45-0.27-2.2-0.27c-1.34,0-2.57,0.2-3.68,0.59c-1.11,0.4-1.76,1.09-1.96,2.08
	c-0.24,1.03,0.06,1.79,0.89,2.28c0.83,0.5,2.25,1,4.27,1.51c3.56,0.87,6.05,2.15,7.48,3.83c1.43,1.68,1.86,3.87,1.31,6.56
	c-0.55,2.61-2.06,4.59-4.51,5.93c-2.45,1.34-5.48,2.02-9.08,2.02c-1.54,0-2.97-0.16-4.27-0.47s-2.47-0.72-3.5-1.22
	c-1.03-0.49-1.93-1.05-2.7-1.66s-1.41-1.22-1.93-1.81l4.69-4.57c0.28,0.44,0.68,0.89,1.22,1.37c0.53,0.47,1.15,0.91,1.84,1.3
	c0.69,0.4,1.45,0.72,2.28,0.98c0.83,0.26,1.66,0.38,2.49,0.38c1.62,0,2.96-0.27,4.01-0.8c1.05-0.53,1.67-1.29,1.87-2.29
	c0.2-0.95-0.16-1.73-1.07-2.34c-0.91-0.61-2.33-1.16-4.27-1.63c-3.24-0.79-5.59-2-7.03-3.62c-1.45-1.62-1.91-3.68-1.39-6.17
	c0.24-1.23,0.73-2.31,1.48-3.26s1.71-1.75,2.88-2.4c1.17-0.65,2.49-1.16,3.97-1.51c1.48-0.36,3.08-0.54,4.78-0.54
	c2.77,0,5.07,0.46,6.91,1.37s3.18,1.9,4.01,2.97L172.32,25.15z"/>
<circle fill="#aaa" cx="110.63" cy="33.88" r="5.13"/>
</svg>
